<?xml version="1.0" encoding="iso-8859-1"?>
<!-- Generator: Adobe Illustrator 18.0.0, SVG Export Plug-In . SVG Version: 6.00 Build 0)  -->
<!DOCTYPE svg PUBLIC "-//W3C//DTD SVG 1.1//EN" "http://www.w3.org/Graphics/SVG/1.1/DTD/svg11.dtd">
<svg version="1.1" id="_x31_" xmlns="http://www.w3.org/2000/svg" xmlns:xlink="http://www.w3.org/1999/xlink" x="0px" y="0px"
	 viewBox="0 0 16 16" style="enable-background:new 0 0 16 16;" xml:space="preserve">
<g>
	<rect style="fill:#EBE5D3;" width="16" height="16"/>
	<polygon style="opacity:0.1;fill:#040000;" points="512,228.045 512,512 229.12,512 152.423,435.302 138.906,421.785 
		138.906,297.369 165.171,271.104 191.488,244.838 244.429,191.898 261.376,174.899 273.203,163.123 274.637,161.638 
		274.688,161.638 360.141,76.185 360.653,76.698 	"/>
	<g>
		<g>
			<path style="fill:#42AAAA;" d="M137.946,112.456c-1.936,0-3.52,1.584-3.52,3.52v45.88c0,1.936,1.584,3.52,3.52,3.52
				c1.936,0,3.52-1.584,3.52-3.52v-45.88C141.466,114.04,139.882,112.456,137.946,112.456z"/>
			<path style="fill:#42AAAA;" d="M137.946,180.881c-1.936,0-3.52,1.584-3.52,3.52v45.88c0,1.936,1.584,3.52,3.52,3.52
				c1.936,0,3.52-1.584,3.52-3.52v-45.88C141.466,182.465,139.882,180.881,137.946,180.881z"/>
			<path style="fill:#42AAAA;" d="M357.146,71.936h-26.573c-2.816,0-5.12,2.304-5.12,5.12c0,2.816,2.304,5.12,5.12,5.12h26.573
				c2.816,0,5.12-2.304,5.12-5.12C362.266,74.24,359.962,71.936,357.146,71.936z"/>
		</g>
		<g>
			<path style="fill:#46B6B9;" d="M373.146,84.685v342.579c0,4.454-3.584,8.038-8.038,8.038H146.893
				c-4.403,0-7.987-3.584-7.987-8.038V84.685c0-4.403,3.584-7.987,7.987-7.987h218.214
				C369.562,76.698,373.146,80.282,373.146,84.685z"/>
			<path style="fill:#FFFFFF;" d="M345.222,91.968H166.801c-8.351,0-15.12,6.77-15.12,15.12v297.816c0,8.351,6.77,15.12,15.12,15.12
				h178.421c8.351,0,15.12-6.77,15.12-15.12V107.088C360.343,98.737,353.573,91.968,345.222,91.968z"/>
			<path style="fill:#777778;" d="M345.222,101.064h-19.219h-6.077H166.801c-2.757,0-4.991,2.309-4.991,5.156v247.904
				c0,2.848,2.235,5.157,4.991,5.157h178.42c2.757,0,4.991-2.309,4.991-5.157V106.22
				C350.213,103.373,347.979,101.064,345.222,101.064z"/>
			<path style="fill:#D4D4D4;" d="M345.222,104.541H166.801c-0.892,0-1.615,0.747-1.615,1.668v247.359
				c0,0.922,0.723,1.669,1.615,1.669h178.42c0.892,0,1.615-0.747,1.615-1.669V106.209
				C346.837,105.288,346.114,104.541,345.222,104.541z"/>
			<g>
				<path style="fill:#FFFFFF;" d="M244.89,112.486c-0.307-0.666-0.717-1.229-1.229-1.69c-0.563-0.461-1.178-0.768-1.894-1.024
					c-0.717-0.256-1.536-0.358-2.355-0.358c-0.87,0-1.638,0.102-2.355,0.358c-0.716,0.256-1.331,0.614-1.894,1.075
					c-0.512,0.461-0.973,1.024-1.28,1.69c-0.307,0.666-0.41,1.433-0.41,2.304c0,0.819,0.102,1.536,0.41,2.15
					c0.256,0.666,0.666,1.178,1.126,1.638c0.461,0.41,0.973,0.768,1.587,0.973c0.614,0.256,1.229,0.358,1.894,0.358
					c0.256,0,0.461,0,0.717-0.051c0.256,0,0.461-0.051,0.717-0.154l-3.993,7.168h3.789l4.045-7.527
					c0.461-0.768,0.819-1.536,1.127-2.304c0.307-0.717,0.461-1.536,0.461-2.304C245.35,113.92,245.197,113.152,244.89,112.486z
					 M241.152,116.685c-0.461,0.461-1.024,0.666-1.741,0.666c-0.768,0-1.383-0.256-1.792-0.666
					c-0.461-0.461-0.666-1.075-0.666-1.894c0-0.819,0.205-1.434,0.666-1.843c0.461-0.461,1.075-0.666,1.792-0.666
					c0.717,0,1.28,0.205,1.741,0.666c0.512,0.409,0.717,1.024,0.717,1.843C241.869,115.609,241.664,116.224,241.152,116.685z"/>
				<path style="fill:#FFFFFF;" d="M249.139,123.341v3.584h3.993v-3.584H249.139z M249.139,116.736v3.584h3.993v-3.584H249.139z"/>
				<path style="fill:#FFFFFF;" d="M267.469,121.446v-3.226h-3.379v3.226h-3.994l6.554-11.878h-3.789l-6.554,11.878v3.021h7.783
					v2.457h3.379v-2.457h1.741v-3.021H267.469z"/>
				<path style="fill:#FFFFFF;" d="M275.098,109.568l-3.891,3.072v3.43l3.891-3.072v13.927h3.482v-17.357H275.098z"/>
			</g>
			<g>
				<path style="fill:#F0EFEF;" d="M253.577,400.907c-4.179,0-7.567-3.388-7.567-7.566h-13.543c0,11.658,9.451,21.109,21.109,21.109
					c11.658,0,21.109-9.451,21.109-21.109h-13.543C261.144,397.519,257.756,400.907,253.577,400.907z"/>
				<path style="fill:#E3E2E2;" d="M253.577,372.231c-11.658,0-21.109,9.451-21.109,21.109h13.543c0-4.179,3.388-7.566,7.567-7.566
					c4.179,0,7.567,3.388,7.567,7.566h13.543C274.687,381.682,265.236,372.231,253.577,372.231z"/>
				<path style="fill:#E3E2E2;" d="M253.577,400.907c4.179,0,7.567-3.388,7.567-7.566h-15.133
					C246.011,397.519,249.399,400.907,253.577,400.907z"/>
			</g>
			<g>
				<circle style="fill:#FFFFFF;" cx="244.197" cy="345.737" r="4.727"/>
				<circle style="fill:#CFEAF3;" cx="267.827" cy="345.737" r="4.727"/>
			</g>
			<g>
				<g>
					<path style="fill:#FFFFFF;" d="M331.674,114.637v-3.891h-24.781v15.514h24.781v-3.84h3.072v-7.783H331.674z M334.08,121.753
						h-3.123v3.84h-23.398v-14.131h23.398v3.84h3.123V121.753z"/>
				</g>
				<polygon style="fill:#FFFFFF;" points="329.968,116.317 329.968,112.456 308.574,112.456 308.574,124.594 329.968,124.594 
					329.968,120.732 333.061,120.732 333.061,116.317 				"/>
			</g>
			<g>
				<circle style="fill:#EDC0A8;" cx="220.954" cy="173.661" r="29.735"/>
				<path style="opacity:0.9;fill:#FFFFFF;" d="M235.571,156.16l-3.482,0.409l-17.613,2.151l-0.41,0.051l-4.147,0.512v20.89
					c-1.28-0.154-2.663,0.051-4.045,0.614c-3.072,1.382-4.813,4.352-4.096,6.963c0.051,0.205,0.102,0.41,0.205,0.614
					c0.563,1.28,1.638,2.201,3.021,2.611c1.536,0.512,3.431,0.461,5.171-0.307c2.611-1.178,4.25-3.482,4.301-5.734V168.55
					l17.613-2.15v9.062c-1.28-0.153-2.662,0-4.045,0.614c-2.714,1.178-4.403,3.635-4.249,5.991c0,0.563,0.102,1.178,0.358,1.689
					c1.177,2.714,4.864,3.738,8.192,2.304c2.611-1.177,4.25-3.481,4.301-5.734v-24.32L235.571,156.16z M232.09,164.71l-4.71,0.563
					l-0.154,0.154l-12.749,1.536v-1.894l17.613-2.151V164.71z"/>
			</g>
			<g>
				<circle style="fill:#97A1B7;" cx="291.07" cy="173.661" r="29.735"/>
				<path style="opacity:0.9;fill:#FFFFFF;" d="M304.589,157.952v2.406c0,1.075-0.768,1.946-1.741,1.946h-23.552
					c-0.973,0-1.741-0.87-1.741-1.946v-2.406h-4.352v31.437h4.352v-1.997c0-1.075,0.768-1.946,1.741-1.946h23.552
					c0.973,0,1.741,0.87,1.741,1.946v1.997h4.352v-31.437H304.589z M276.582,187.853c0,0.307-0.256,0.563-0.512,0.563h-1.433
					c-0.307,0-0.512-0.256-0.512-0.563v-1.178c0-0.307,0.205-0.563,0.512-0.563h1.433c0.256,0,0.512,0.256,0.512,0.563V187.853z
					 M276.582,183.398c0,0.307-0.256,0.563-0.512,0.563h-1.433c-0.307,0-0.512-0.256-0.512-0.563v-1.178
					c0-0.307,0.205-0.563,0.512-0.563h1.433c0.256,0,0.512,0.256,0.512,0.563V183.398z M276.582,178.893
					c0,0.358-0.256,0.614-0.512,0.614h-1.433c-0.307,0-0.512-0.256-0.512-0.614v-1.127c0-0.307,0.205-0.563,0.512-0.563h1.433
					c0.256,0,0.512,0.256,0.512,0.563V178.893z M276.582,174.438c0,0.307-0.256,0.564-0.512,0.564h-1.433
					c-0.307,0-0.512-0.256-0.512-0.564v-1.126c0-0.359,0.205-0.614,0.512-0.614h1.433c0.256,0,0.512,0.256,0.512,0.614V174.438z
					 M276.582,169.984c0,0.307-0.256,0.563-0.512,0.563h-1.433c-0.307,0-0.512-0.256-0.512-0.563v-1.178
					c0-0.307,0.205-0.563,0.512-0.563h1.433c0.256,0,0.512,0.256,0.512,0.563V169.984z M276.582,165.529
					c0,0.307-0.256,0.563-0.512,0.563h-1.433c-0.307,0-0.512-0.256-0.512-0.563v-1.178c0-0.307,0.205-0.563,0.512-0.563h1.433
					c0.256,0,0.512,0.256,0.512,0.563V165.529z M276.582,161.024c0,0.358-0.256,0.614-0.512,0.614h-1.433
					c-0.307,0-0.512-0.256-0.512-0.614v-1.126c0-0.307,0.205-0.563,0.512-0.563h1.433c0.205,0,0.461,0.205,0.461,0.461
					c0.051,0.051,0.051,0.051,0.051,0.103V161.024z M304.589,182.63c0,0.256-0.153,0.41-0.358,0.41h-24.934
					c-0.973,0-1.741-0.871-1.741-1.946v-14.439c0-1.075,0.768-1.997,1.741-1.997h24.934c0.205,0,0.358,0.205,0.358,0.41V182.63z
					 M307.968,187.853c0,0.307-0.256,0.563-0.512,0.563h-1.433c-0.307,0-0.512-0.256-0.512-0.563v-1.178
					c0-0.307,0.205-0.563,0.512-0.563h1.433c0.256,0,0.512,0.256,0.512,0.563V187.853z M307.968,183.398
					c0,0.307-0.256,0.563-0.512,0.563h-1.433c-0.307,0-0.512-0.256-0.512-0.563v-1.178c0-0.307,0.205-0.563,0.512-0.563h1.433
					c0.256,0,0.512,0.256,0.512,0.563V183.398z M307.968,178.893c0,0.358-0.256,0.614-0.512,0.614h-1.433
					c-0.307,0-0.512-0.256-0.512-0.614v-1.127c0-0.307,0.205-0.563,0.512-0.563h1.433c0.256,0,0.512,0.256,0.512,0.563V178.893z
					 M307.968,174.438c0,0.307-0.256,0.564-0.512,0.564h-1.433c-0.307,0-0.512-0.256-0.512-0.564v-1.126
					c0-0.359,0.205-0.614,0.512-0.614h1.433c0.256,0,0.512,0.256,0.512,0.614V174.438z M307.968,169.984
					c0,0.307-0.256,0.563-0.512,0.563h-1.433c-0.307,0-0.512-0.256-0.512-0.563v-1.178c0-0.307,0.205-0.563,0.512-0.563h1.433
					c0.256,0,0.512,0.256,0.512,0.563V169.984z M307.968,165.529c0,0.307-0.256,0.563-0.512,0.563h-1.433
					c-0.307,0-0.512-0.256-0.512-0.563v-1.178c0-0.307,0.205-0.563,0.512-0.563h1.433c0.256,0,0.512,0.256,0.512,0.563V165.529z
					 M307.968,161.024c0,0.358-0.256,0.614-0.512,0.614h-1.433c-0.307,0-0.512-0.256-0.512-0.614v-1.126
					c0-0.307,0.205-0.563,0.512-0.563h1.433c0.256,0,0.512,0.256,0.512,0.563V161.024z"/>
			</g>
			<g>
				<circle style="fill:#B797A1;" cx="220.954" cy="241.189" r="29.735"/>
				<path style="opacity:0.9;fill:#FFFFFF;" d="M205.755,233.075c0,0-9.953,16.589,5.53,16.22
					c15.483-0.369,28.017-16.22,28.017-16.22c-12.165,5.161-26.911,10.697-29.122,8.113
					C207.967,238.605,205.755,233.075,205.755,233.075z"/>
			</g>
			<g>
				<circle style="fill:#73BADA;" cx="291.07" cy="241.189" r="29.735"/>
				<g>
					<path style="opacity:0.9;fill:#FFFFFF;" d="M291.8,233.801h-1.459c-2.64,0-4.8-2.16-4.8-4.8v-1.459c0-2.64,2.16-4.8,4.8-4.8
						h1.459c2.64,0,4.8,2.16,4.8,4.8v1.459C296.6,231.641,294.44,233.801,291.8,233.801z"/>
					<path style="opacity:0.9;fill:#FFFFFF;" d="M294.438,237.516h-6.737c-1.417,0-2.485,1.302-2.379,2.84l1.224,17.621
						c0.064,0.922,0.975,1.658,2.025,1.658h4.996c1.051,0,1.961-0.735,2.025-1.658l1.224-17.621
						C296.924,238.818,295.855,237.516,294.438,237.516z"/>
				</g>
			</g>
			<g>
				
					<ellipse transform="matrix(1 0.0044 -0.0044 1 1.3536 -1.2714)" style="fill:#5E6776;" cx="292.09" cy="309.619" rx="29.638" ry="29.281"/>
				<path style="opacity:0.9;fill:#FFFFFF;" d="M304.691,323.174l-4.045-10.854l0.102-0.051l-0.153-0.102v-0.051l-2.407-6.553
					l-0.717-1.894l-3.225-8.704c0-0.051-0.051-0.103-0.051-0.154c-0.102-0.102-0.154-0.205-0.256-0.358
					c-0.051-0.102-0.154-0.153-0.256-0.256c-0.102-0.102-0.205-0.153-0.358-0.205c-0.102-0.103-0.256-0.154-0.409-0.205
					c-0.051,0-0.102-0.051-0.154-0.051c-0.102-0.051-0.154-0.051-0.205-0.051h-0.922c-0.051,0-0.154,0-0.205,0.051
					c-0.051,0-0.102,0.051-0.205,0.051c-0.154,0.051-0.256,0.102-0.41,0.205c-0.102,0.051-0.205,0.103-0.307,0.205
					c-0.102,0.102-0.205,0.154-0.256,0.256c-0.103,0.154-0.205,0.256-0.256,0.358c0,0.051-0.051,0.103-0.103,0.154l-3.174,8.704
					l-0.717,1.894l-2.406,6.553l-0.154,0.154l0.051,0.051l-3.993,10.854c-0.358,0.973,0.307,1.996,1.536,2.304
					c0.205,0.103,0.41,0.103,0.666,0.103c0.922,0,1.843-0.512,2.15-1.331l0.922-2.509l0.614,0.41l6.707-4.301l6.707,4.301
					l0.564-0.41l0.921,2.509c0.307,0.819,1.229,1.331,2.202,1.331c0.256,0,0.461,0,0.666-0.103
					C304.333,325.171,305.05,324.147,304.691,323.174z M294.4,308.326l0.512,1.229l-1.126-0.819L294.4,308.326z M292.096,301.978
					l1.639,4.352l-1.639,1.178l-1.638-1.178L292.096,301.978z M289.741,308.326l0.614,0.41l-1.075,0.819L289.741,308.326z
					 M285.696,319.232l1.638-4.454l2.663,1.69L285.696,319.232z M288.358,312.729l3.737-2.714l3.687,2.714l-3.687,2.406
					L288.358,312.729z M294.195,316.467l2.611-1.69l1.638,4.454L294.195,316.467z"/>
			</g>
			<g>
				<circle style="fill:#8DCB9F;" cx="219.847" cy="309.576" r="29.735"/>
				<g>
					<path style="opacity:0.9;fill:#FFFFFF;" d="M212.541,316.797c-0.072-0.864,4.534-1.44,6.838-1.871
						c2.303-0.432,1.772-2.341,1.439-4.894c-0.26-1.997,0.038-4.348-2.799-4.204c-0.342,0.017-1.807,1.876-2.239,2.104
						c-0.432,0.228,0.936-3.455,0.936-3.455s-5.702,0.908-4.966,0.372c0.792-0.576,2.303-4.03,4.606-3.257
						c0.553,0.186-5.939-2.616-1.943-3.149c2.159-0.288,4.966-0.648,6.694,0.648c1.727,1.296,2.006-0.028,3.095-0.288
						c1.583-0.378,3.455,1.512,4.103,3.455l-2.447,1.211c0,0,5.052,3.2,0.79,2.524c-2.301-0.365-3.669,1.015-3.525,3.03
						c0.042,0.592,0.078,5.53,0.504,5.604c2.313,0.401,4.894,0.658,6.262,2.169c0.611,0.675-1.583,2.465-6.766,1.952
						C217.939,318.236,212.613,317.66,212.541,316.797z"/>
					<g style="opacity:0.9;">
						<g>
							<path style="fill:#FFFFFF;" d="M201.779,293.837v31.488h36.147v-31.488H201.779z M234.957,322.355h-30.259v-25.549h30.259
								V322.355z"/>
						</g>
						<g>
							<path style="fill:#FFFFFF;" d="M201.779,293.837v31.488h36.147v-31.488H201.779z M234.957,322.355h-30.259v-25.549h30.259
								V322.355z"/>
						</g>
					</g>
				</g>
			</g>
		</g>
	</g>
	<path style="opacity:0.07;fill:#040000;" d="M138.893,373.115v54.172c0,4.425,3.588,8.013,8.013,8.013h218.212
		c4.425,0,8.013-3.588,8.013-8.013v-288.41L138.893,373.115z"/>
</g>
</svg>
